<?xml version="1.0" standalone="no"?>
<!DOCTYPE svg PUBLIC "-//W3C//DTD SVG 20010904//EN"
 "http://www.w3.org/TR/2001/REC-SVG-20010904/DTD/svg10.dtd">
<svg version="1.0" xmlns="http://www.w3.org/2000/svg"
 width="1080.000000pt" height="1302.000000pt" viewBox="0 0 1080.000000 1302.000000"
 preserveAspectRatio="xMidYMid meet">

<g transform="translate(0.000000,1302.000000) scale(0.100000,-0.100000)"
fill="#000000" stroke="none">
<path d="M0 6510 l0 -6510 5400 0 5400 0 0 6510 0 6510 -5400 0 -5400 0 0
-6510z m5475 4391 c3 -5 1 -12 -5 -16 -5 -3 -10 1 -10 9 0 18 6 21 15 7z m243
-44 c2 -19 -1 -27 -13 -27 -19 0 -30 24 -21 46 9 23 31 11 34 -19z m-218 17
c0 -3 -7 -12 -15 -21 -20 -19 -32 -9 -15 12 12 15 30 20 30 9z m-370 -30 c0
-8 -5 -12 -10 -9 -6 4 -8 11 -5 16 9 14 15 11 15 -7z m1056 -41 c-11 -11 -17
4 -9 23 7 18 8 18 11 1 2 -10 1 -21 -2 -24z m-846 -3 c0 -5 -4 -10 -9 -10 -6
0 -13 5 -16 10 -3 6 1 10 9 10 9 0 16 -4 16 -10z m969 -4 c8 -10 9 -16 1 -21
-13 -8 -30 3 -30 21 0 18 14 18 29 0z m-654 -40 c16 7 29 -12 15 -21 -5 -3
-10 -19 -10 -34 0 -20 -6 -30 -19 -34 -15 -4 -20 2 -24 35 -6 47 1 74 16 59 5
-5 15 -7 22 -5z m-1005 -7 c0 -5 -5 -7 -12 -3 -8 5 -9 2 -5 -10 4 -10 3 -15
-3 -11 -15 10 -12 35 5 35 8 0 15 -5 15 -11z m770 7 c0 -3 -4 -8 -10 -11 -5
-3 -10 -1 -10 4 0 6 5 11 10 11 6 0 10 -2 10 -4z m608 -14 c2 -7 -3 -12 -12
-12 -9 0 -16 7 -16 16 0 17 22 14 28 -4z m32 -22 c0 -5 -2 -10 -4 -10 -3 0 -8
5 -11 10 -3 6 -1 10 4 10 6 0 11 -4 11 -10z m-1190 -16 c11 -12 10 -18 -3 -32
-21 -20 -39 -6 -31 26 7 26 17 28 34 6z m1430 -4 c0 -5 -4 -10 -10 -10 -5 0
-10 5 -10 10 0 6 5 10 10 10 6 0 10 -4 10 -10z m309 -16 c2 -2 2 -6 -1 -9 -8
-9 -68 7 -62 16 5 8 52 2 63 -7z m-1039 -4 c0 -5 -4 -10 -10 -10 -5 0 -10 5
-10 10 0 6 5 10 10 10 6 0 10 -4 10 -10z m-513 -32 c-3 -7 -5 -2 -5 12 0 14 2
19 5 13 2 -7 2 -19 0 -25z m460 10 c-3 -8 -6 -5 -6 6 -1 11 2 17 5 13 3 -3 4
-12 1 -19z m-342 2 c3 -5 1 -10 -4 -10 -6 0 -11 5 -11 10 0 6 2 10 4 10 3 0 8
-4 11 -10z m-525 -14 c0 -3 -4 -8 -10 -11 -5 -3 -10 -1 -10 4 0 6 5 11 10 11
6 0 10 -2 10 -4z m1877 -42 c-9 -9 -28 6 -21 18 4 6 10 6 17 -1 6 -6 8 -13 4
-17z m-1149 -2 c2 -7 -3 -12 -12 -12 -9 0 -16 7 -16 16 0 17 22 14 28 -4z
m1017 -2 c0 -7 -6 -15 -12 -17 -8 -3 -13 4 -13 17 0 13 5 20 13 18 6 -3 12
-11 12 -18z m-1500 -19 c3 -5 1 -12 -5 -16 -5 -3 -10 1 -10 9 0 18 6 21 15 7z
m731 -28 c-11 -11 -19 6 -11 24 8 17 8 17 12 0 3 -10 2 -21 -1 -24z m1311 21
c-3 -3 -12 -4 -19 -1 -8 3 -5 6 6 6 11 1 17 -2 13 -5z m-907 -35 c0 -5 -6 -9
-14 -9 -8 0 -17 -6 -19 -12 -4 -9 -6 -8 -6 3 -1 8 4 20 11 27 12 12 28 7 28
-9z m810 -4 c0 -14 -4 -25 -10 -25 -11 0 -14 33 -3 43 11 11 13 8 13 -18z
m-1260 11 c0 -3 -4 -8 -10 -11 -5 -3 -10 -1 -10 4 0 6 5 11 10 11 6 0 10 -2
10 -4z m805 -6 c4 -6 -5 -10 -19 -10 -14 0 -26 5 -26 10 0 6 9 10 19 10 11 0
23 -4 26 -10z m-2475 -4 c0 -11 -19 -15 -25 -6 -3 5 1 10 9 10 9 0 16 -2 16
-4z m1300 -6 c0 -5 -4 -10 -10 -10 -5 0 -10 5 -10 10 0 6 5 10 10 10 6 0 10
-4 10 -10z m417 -27 c-3 -10 -5 -4 -5 12 0 17 2 24 5 18 2 -7 2 -21 0 -30z
m873 33 c0 -3 -4 -8 -10 -11 -5 -3 -10 -1 -10 4 0 6 5 11 10 11 6 0 10 -2 10
-4z m182 -33 c-18 -38 -27 -41 -42 -14 -15 29 -3 48 29 47 l28 -1 -15 -32z
m-2972 2 c0 -16 -6 -25 -15 -25 -15 0 -21 31 -8 43 13 14 23 6 23 -18z m380
11 c0 -2 -3 -11 -6 -20 -9 -23 -24 -20 -24 4 0 11 7 20 15 20 8 0 15 -2 15 -4z
m1537 -93 c-3 -10 -5 -4 -5 12 0 17 2 24 5 18 2 -7 2 -21 0 -30z m-1832 -3 c3
-5 -1 -10 -10 -10 -9 0 -13 5 -10 10 3 6 8 10 10 10 2 0 7 -4 10 -10z m2840 0
c-3 -5 -13 -10 -21 -10 -8 0 -12 5 -9 10 3 6 13 10 21 10 8 0 12 -4 9 -10z
m-595 -10 c0 -5 -4 -10 -10 -10 -5 0 -10 5 -10 10 0 6 5 10 10 10 6 0 10 -4
10 -10z m-275 -10 c3 -5 1 -10 -4 -10 -6 0 -11 5 -11 10 0 6 2 10 4 10 3 0 8
-4 11 -10z m85 -15 c0 -17 -4 -18 -39 -8 -23 6 -23 7 -5 14 30 12 44 10 44 -6z
m530 0 c0 -8 -4 -15 -10 -15 -5 0 -10 7 -10 15 0 8 5 15 10 15 6 0 10 -7 10
-15z m-1725 -5 c3 -5 -1 -10 -10 -10 -9 0 -13 5 -10 10 3 6 8 10 10 10 2 0 7
-4 10 -10z m972 -27 c-3 -10 -5 -4 -5 12 0 17 2 24 5 18 2 -7 2 -21 0 -30z
m1558 7 c3 -5 -1 -10 -10 -10 -9 0 -13 5 -10 10 3 6 8 10 10 10 2 0 7 -4 10
-10z m-1175 -15 c0 -8 -4 -15 -10 -15 -5 0 -10 7 -10 15 0 8 5 15 10 15 6 0
10 -7 10 -15z m1567 -21 c-9 -9 -28 6 -21 18 4 6 10 6 17 -1 6 -6 8 -13 4 -17z
m-4397 6 c0 -5 -7 -10 -15 -10 -8 0 -15 5 -15 10 0 6 7 10 15 10 8 0 15 -4 15
-10z m3383 -11 c-6 -6 -17 -8 -24 -3 -9 5 -8 9 7 14 23 9 31 3 17 -11z m-1243
-14 c0 -8 -4 -15 -9 -15 -13 0 -22 16 -14 24 11 11 23 6 23 -9z m1703 9 c3 -3
3 -13 0 -21 -5 -12 -7 -12 -14 -1 -15 23 -4 40 14 22z m317 -13 c0 -6 -4 -13
-10 -16 -5 -3 -10 1 -10 9 0 9 5 16 10 16 6 0 10 -4 10 -9z m80 -5 c0 -3 -4
-8 -10 -11 -5 -3 -10 -1 -10 4 0 6 5 11 10 11 6 0 10 -2 10 -4z m-1791 -58 c0
-27 -2 -29 -8 -13 -5 11 -6 26 -4 33 8 21 13 13 12 -20z m574 17 c1 -6 -11
-11 -28 -13 -29 -2 -29 -2 -10 13 20 16 35 16 38 0z m-608 -5 c3 -5 -1 -10 -9
-10 -8 0 -18 5 -21 10 -3 6 1 10 9 10 8 0 18 -4 21 -10z m90 0 c3 -5 -1 -10
-10 -10 -9 0 -13 5 -10 10 3 6 8 10 10 10 2 0 7 -4 10 -10z m1123 -92 c18 -18
15 -28 -8 -28 -13 0 -20 7 -20 20 0 23 10 26 28 8z m372 2 c0 -5 -4 -10 -10
-10 -5 0 -10 5 -10 10 0 6 5 10 10 10 6 0 10 -4 10 -10z m-4120 -14 c0 -8 -5
-18 -11 -22 -14 -8 -33 11 -25 25 10 16 36 13 36 -3z m4300 -13 c0 -13 -3 -13
-15 -3 -8 7 -12 16 -9 21 8 13 24 1 24 -18z m-820 -29 c0 -16 -16 -19 -25 -4
-8 13 4 32 16 25 5 -4 9 -13 9 -21z m-2925 -34 c3 -5 -3 -10 -15 -10 -12 0
-18 5 -15 10 3 6 10 10 15 10 5 0 12 -4 15 -10z m4165 0 c0 -5 -4 -10 -10 -10
-5 0 -10 5 -10 10 0 6 5 10 10 10 6 0 10 -4 10 -10z m-2153 -62 c-2 -13 -4 -3
-4 22 0 25 2 35 4 23 2 -13 2 -33 0 -45z m-2967 12 c0 -5 -4 -10 -10 -10 -5 0
-10 5 -10 10 0 6 5 10 10 10 6 0 10 -4 10 -10z m512 -32 c-7 -7 -12 -8 -12 -2
0 14 12 26 19 19 2 -3 -1 -11 -7 -17z m4728 -99 c0 -18 -2 -19 -15 -9 -15 12
-12 30 6 30 5 0 9 -10 9 -21z m80 12 c0 -18 -18 -21 -30 -6 -10 13 -9 15 9 15
11 0 21 -4 21 -9z m-2353 -68 c-3 -10 -5 -2 -5 17 0 19 2 27 5 18 2 -10 2 -26
0 -35z m-3259 -40 c-10 -2 -26 -2 -35 0 -10 3 -2 5 17 5 19 0 27 -2 18 -5z
m185 -2 c-24 -4 -62 -4 -85 0 -33 5 -24 6 42 6 66 0 75 -1 43 -6z m225 2 c-32
-2 -86 -2 -120 0 -35 2 -9 3 57 3 66 0 94 -1 63 -3z m95 0 c-7 -2 -19 -2 -25
0 -7 3 -2 5 12 5 14 0 19 -2 13 -5z m5277 3 c0 -3 -4 -8 -10 -11 -5 -3 -10 -1
-10 4 0 6 5 11 10 11 6 0 10 -2 10 -4z m-2523 -48 c-3 -7 -5 -2 -5 12 0 14 2
19 5 13 2 -7 2 -19 0 -25z m-2897 0 c0 -18 -2 -20 -9 -8 -6 8 -7 18 -5 22 9
14 14 9 14 -14z m4720 12 c0 -5 -5 -10 -11 -10 -5 0 -7 5 -4 10 3 6 8 10 11
10 2 0 4 -4 4 -10z m-5080 -110 c0 -5 -4 -10 -10 -10 -5 0 -10 5 -10 10 0 6 5
10 10 10 6 0 10 -4 10 -10z m320 -21 c0 -12 -27 -11 -35 1 -11 17 5 32 21 19
8 -6 14 -15 14 -20z m5074 -90 c-3 -5 -10 -7 -15 -3 -5 3 -7 10 -3 15 3 5 10
7 15 3 5 -3 7 -10 3 -15z m-5404 -3 c0 -7 -9 -16 -20 -19 -13 -3 -18 -10 -14
-21 3 -9 3 -24 -1 -33 -6 -17 -7 -17 -17 0 -12 23 7 74 30 80 10 3 18 5 20 6
1 0 2 -5 2 -13z m535 -186 c3 -5 1 -10 -4 -10 -6 0 -11 5 -11 10 0 6 2 10 4
10 3 0 8 -4 11 -10z m-635 -20 c0 -5 -4 -10 -10 -10 -5 0 -10 5 -10 10 0 6 5
10 10 10 6 0 10 -4 10 -10z m55 0 c3 -5 -1 -10 -10 -10 -9 0 -13 5 -10 10 3 6
8 10 10 10 2 0 7 -4 10 -10z m6145 0 c0 -5 -7 -10 -15 -10 -8 0 -15 5 -15 10
0 6 7 10 15 10 8 0 15 -4 15 -10z m210 -194 c0 -3 -4 -8 -10 -11 -5 -3 -10 -1
-10 4 0 6 5 11 10 11 6 0 10 -2 10 -4z m-6606 -47 c-3 -5 -10 -7 -15 -3 -5 3
-7 10 -3 15 3 5 10 7 15 3 5 -3 7 -10 3 -15z m6306 -84 c0 -8 -4 -15 -9 -15
-13 0 -22 16 -14 24 11 11 23 6 23 -9z m-6563 -161 c7 -20 -8 -36 -25 -25 -14
8 -6 41 9 41 5 0 12 -7 16 -16z m128 -164 c3 -5 1 -10 -4 -10 -6 0 -11 5 -11
10 0 6 2 10 4 10 3 0 8 -4 11 -10z m-455 -114 c0 -3 -4 -8 -10 -11 -5 -3 -10
-1 -10 4 0 6 5 11 10 11 6 0 10 -2 10 -4z m70 -160 c0 -11 -19 -15 -25 -6 -3
5 1 10 9 10 9 0 16 -2 16 -4z m7370 -17 c0 -5 -4 -9 -10 -9 -5 0 -10 7 -10 16
0 8 5 12 10 9 6 -3 10 -10 10 -16z m-7500 -119 c0 -5 -4 -10 -10 -10 -5 0 -10
5 -10 10 0 6 5 10 10 10 6 0 10 -4 10 -10z m3235 -90 c71 -33 107 -65 137
-123 20 -37 23 -57 23 -162 0 -123 -7 -163 -62 -355 -116 -411 -309 -730 -515
-853 -147 -88 -325 -70 -402 41 -50 73 -68 137 -73 267 -12 261 49 537 177
810 141 302 231 386 430 404 137 12 214 4 285 -29z m4345 10 c0 -12 -40 -34
-48 -26 -3 4 3 13 14 21 22 17 34 19 34 5z m-2246 -71 c0 -24 -21 -118 -47
-209 -58 -202 -67 -234 -63 -237 2 -2 29 -6 62 -9 64 -7 84 -17 84 -43 0 -38
-24 -53 -105 -62 -43 -4 -82 -14 -86 -20 -4 -7 -24 -73 -44 -148 -21 -75 -43
-156 -51 -181 -38 -133 -53 -188 -59 -220 -3 -19 -10 -44 -15 -55 -10 -23 -40
-158 -36 -162 1 -1 23 9 49 22 54 29 74 31 99 8 25 -22 23 -36 -9 -68 -64 -64
-191 -103 -260 -81 -34 11 -30 66 17 252 42 165 46 180 130 457 27 92 50 174
50 182 0 11 -12 15 -42 15 -63 0 -108 19 -108 47 0 43 33 63 104 63 39 0 67 5
73 13 11 12 42 106 88 262 61 206 58 199 94 217 51 26 76 12 75 -43z m-5310
-70 c-8 -14 -24 -10 -24 6 0 9 6 12 15 9 8 -4 12 -10 9 -15z m276 -19 c0 -5
-4 -10 -10 -10 -5 0 -10 5 -10 10 0 6 5 10 10 10 6 0 10 -4 10 -10z m145 -20
c-3 -5 -10 -10 -16 -10 -5 0 -9 5 -9 10 0 6 7 10 16 10 8 0 12 -4 9 -10z
m7023 -18 c2 -7 -2 -10 -12 -6 -9 3 -16 11 -16 16 0 13 23 5 28 -10z m332 -82
c0 -5 -5 -10 -11 -10 -5 0 -7 5 -4 10 3 6 8 10 11 10 2 0 4 -4 4 -10z m-7514
-121 c10 -17 -13 -36 -27 -22 -12 12 -4 33 11 33 5 0 12 -5 16 -11z m-546 -49
c0 -5 -4 -10 -10 -10 -5 0 -10 5 -10 10 0 6 5 10 10 10 6 0 10 -4 10 -10z
m8233 -10 c-7 -26 -19 -34 -29 -19 -4 7 1 18 11 26 24 17 24 17 18 -7z m-563
-100 c0 -5 -4 -10 -10 -10 -5 0 -10 5 -10 10 0 6 5 10 10 10 6 0 10 -4 10 -10z
m417 -16 c2 -5 -3 -19 -12 -29 -14 -19 -14 -18 -15 13 0 31 18 42 27 16z
m-3960 -58 c24 -20 53 -35 77 -39 55 -9 128 -56 149 -97 22 -43 17 -94 -18
-207 -82 -258 -207 -439 -365 -525 -285 -156 -388 116 -212 557 55 139 121
252 171 293 30 25 96 52 128 52 23 0 44 -10 70 -34z m653 -11 c9 -10 11 -32 7
-66 l-6 -51 39 36 c48 44 87 64 137 72 33 5 44 2 65 -17 29 -28 51 -104 42
-148 -8 -36 -45 -63 -82 -59 -21 2 -32 13 -47 46 -11 23 -25 42 -33 42 -26 0
-102 -90 -140 -167 -34 -67 -82 -195 -112 -298 -52 -181 -75 -242 -101 -267
-30 -31 -55 -35 -83 -15 -24 17 -23 47 2 137 12 41 31 109 42 150 12 41 28 98
35 125 18 69 52 190 69 250 8 28 24 83 34 123 11 41 30 85 43 98 26 27 70 32
89 9z m3570 -129 c-7 -7 -14 -6 -21 1 -9 9 -7 12 9 10 14 -1 18 -5 12 -11z
m-7875 -96 c3 -11 3 -24 0 -30 -8 -13 -35 13 -35 34 0 23 27 20 35 -4z m-156
-74 c8 -10 8 -16 -2 -25 -16 -13 -27 -5 -27 21 0 21 13 23 29 4z m7887 -73
c-10 -10 -19 5 -10 18 6 11 8 11 12 0 2 -7 1 -15 -2 -18z m-7936 -13 c0 -5 -5
-10 -11 -10 -5 0 -7 5 -4 10 3 6 8 10 11 10 2 0 4 -4 4 -10z m7860 -19 c0 -11
-4 -23 -10 -26 -6 -4 -10 5 -10 19 0 14 5 26 10 26 6 0 10 -9 10 -19z m325
-191 c3 -5 -1 -10 -10 -10 -9 0 -13 5 -10 10 3 6 8 10 10 10 2 0 7 -4 10 -10z
m-7895 -149 c0 -6 -4 -13 -10 -16 -5 -3 -10 1 -10 9 0 9 5 16 10 16 6 0 10 -4
10 -9z m7797 -38 c-9 -9 -19 -14 -23 -11 -10 10 6 28 24 28 15 0 15 -1 -1 -17z
m171 -24 c-2 -6 -8 -10 -13 -10 -5 0 -11 4 -13 10 -2 6 4 11 13 11 9 0 15 -5
13 -11z m-8661 -101 c-3 -7 -5 -2 -5 12 0 14 2 19 5 13 2 -7 2 -19 0 -25z
m8533 -18 c0 -5 -4 -10 -10 -10 -5 0 -10 5 -10 10 0 6 5 10 10 10 6 0 10 -4
10 -10z m-8244 -187 c-10 -10 -19 5 -10 18 6 11 8 11 12 0 2 -7 1 -15 -2 -18z
m424 17 c0 -5 -2 -10 -4 -10 -3 0 -8 5 -11 10 -3 6 -1 10 4 10 6 0 11 -4 11
-10z m-713 -47 c-3 -10 -5 -2 -5 17 0 19 2 27 5 18 2 -10 2 -26 0 -35z m93 7
c0 -5 -13 -10 -29 -10 -17 0 -33 5 -36 10 -4 6 8 10 29 10 20 0 36 -4 36 -10z
m240 0 c0 -13 -20 -13 -40 0 -12 8 -9 10 13 10 15 0 27 -4 27 -10z m60 0 c0
-5 -9 -10 -21 -10 -11 0 -17 5 -14 10 3 6 13 10 21 10 8 0 14 -4 14 -10z m130
-6 c0 -2 -9 -4 -20 -4 -11 0 -20 4 -20 9 0 5 9 7 20 4 11 -3 20 -7 20 -9z
m3411 -33 l24 -19 -18 -64 c-30 -107 -34 -120 -62 -213 -31 -104 -47 -161
-125 -445 -33 -123 -142 -542 -151 -585 -5 -22 -13 -58 -18 -79 -11 -47 -4
-66 39 -96 36 -25 38 -55 8 -87 -35 -38 -89 -32 -140 15 -65 61 -63 120 17
387 15 50 33 113 40 140 48 179 78 295 85 325 13 62 88 340 139 515 42 146 53
173 80 197 37 33 51 35 82 9z m2392 -5 c9 -13 3 -62 -17 -131 -26 -89 -104
-357 -135 -460 -57 -192 -100 -341 -136 -475 -119 -436 -115 -423 -163 -441
-40 -15 -75 14 -70 57 2 19 3 34 1 34 -1 0 -44 -22 -95 -48 -51 -27 -112 -54
-134 -60 -138 -40 -196 15 -181 172 8 79 26 136 89 266 59 123 136 235 210
309 113 113 186 144 267 114 52 -20 57 -17 74 40 21 72 113 377 137 457 11 36
20 71 20 78 0 26 42 93 63 102 25 10 58 3 70 -14z m2247 14 c0 -5 -2 -10 -4
-10 -3 0 -8 5 -11 10 -3 6 -1 10 4 10 6 0 11 -4 11 -10z m-7750 -4 c0 -3 -4
-8 -10 -11 -5 -3 -10 -1 -10 4 0 6 5 11 10 11 6 0 10 -2 10 -4z m7410 -31 c0
-8 -7 -15 -15 -15 -8 0 -15 7 -15 15 0 8 7 15 15 15 8 0 15 -7 15 -15z m-8233
-57 c-3 -8 -6 -5 -6 6 -1 11 2 17 5 13 3 -3 4 -12 1 -19z m0 -75 c-3 -10 -5
-2 -5 17 0 19 2 27 5 18 2 -10 2 -26 0 -35z m8413 37 c0 -5 -7 -10 -15 -10 -8
0 -15 5 -15 10 0 6 7 10 15 10 8 0 15 -4 15 -10z m-8413 -152 c-3 -7 -5 -2 -5
12 0 14 2 19 5 13 2 -7 2 -19 0 -25z m0 -100 c-2 -13 -4 -3 -4 22 0 25 2 35 4
23 2 -13 2 -33 0 -45z m8371 -16 c3 -9 -2 -13 -14 -10 -9 1 -19 9 -22 16 -3 9
2 13 14 10 9 -1 19 -9 22 -16z m-8371 -124 c-2 -18 -4 -4 -4 32 0 36 2 50 4
33 2 -18 2 -48 0 -65z m133 62 c0 -5 -2 -10 -4 -10 -3 0 -8 5 -11 10 -3 6 -1
10 4 10 6 0 11 -4 11 -10z m8455 -49 c3 -5 1 -12 -5 -16 -5 -3 -10 1 -10 9 0
18 6 21 15 7z m-435 -101 c0 -5 -4 -10 -10 -10 -5 0 -10 5 -10 10 0 6 5 10 10
10 6 0 10 -4 10 -10z m-3859 -90 c18 -21 35 -30 56 -30 44 0 132 -49 155 -85
33 -52 15 -151 -62 -349 -70 -178 -156 -298 -278 -388 -72 -54 -111 -68 -182
-68 -51 0 -64 4 -91 28 -42 37 -59 91 -59 187 0 200 121 539 237 664 79 85
170 102 224 41z m-936 5 c17 -16 25 -35 25 -57 0 -39 -7 -51 -37 -67 -33 -17
-57 -13 -83 14 l-23 24 -37 -19 c-95 -48 -292 -328 -350 -495 -22 -65 -25
-107 -10 -136 15 -28 89 -25 197 7 139 41 162 45 183 34 28 -15 25 -55 -6 -79
-14 -11 -60 -31 -102 -45 -156 -50 -197 -58 -287 -55 -81 4 -88 6 -111 32 -42
49 -31 190 23 306 96 206 318 501 407 542 28 13 65 19 114 19 64 0 76 -3 97
-25z m1605 -26 c0 -16 -6 -42 -14 -58 -8 -15 -24 -61 -35 -102 -11 -41 -36
-132 -56 -204 -54 -196 -81 -353 -63 -370 3 -4 27 16 52 43 136 145 230 324
310 587 41 135 58 158 115 153 31 -3 36 -7 39 -32 2 -16 -5 -54 -16 -85 -11
-31 -25 -78 -32 -106 -6 -27 -15 -59 -20 -70 -10 -25 -66 -229 -86 -310 -8
-33 -18 -73 -23 -90 -5 -16 -14 -59 -21 -95 -7 -36 -21 -77 -31 -91 -22 -32
-61 -44 -90 -28 -19 10 -21 17 -15 68 3 31 9 72 12 91 6 34 5 34 -31 -20 -73
-110 -126 -150 -195 -150 -50 0 -67 9 -94 54 -36 57 -1 269 98 605 53 177 89
242 141 253 33 7 55 -10 55 -43z m3130 -129 c0 -5 -2 -10 -4 -10 -3 0 -8 5
-11 10 -3 6 -1 10 4 10 6 0 11 -4 11 -10z m-7745 -89 c3 -5 1 -12 -5 -16 -5
-3 -10 1 -10 9 0 18 6 21 15 7z m75 -51 c0 -5 -9 -10 -21 -10 -11 0 -17 5 -14
10 3 6 13 10 21 10 8 0 14 -4 14 -10z m7870 -54 c0 -3 -4 -8 -10 -11 -5 -3
-10 -1 -10 4 0 6 5 11 10 11 6 0 10 -2 10 -4z m275 -66 c3 -5 1 -10 -4 -10 -6
0 -11 5 -11 10 0 6 2 10 4 10 3 0 8 -4 11 -10z m-205 -10 c0 -5 -4 -10 -10
-10 -5 0 -10 5 -10 10 0 6 5 10 10 10 6 0 10 -4 10 -10z m-130 -55 c0 -23 -2
-24 -20 -15 -11 6 -20 17 -20 25 0 8 9 15 20 15 15 0 20 -7 20 -25z m-52 -43
c3 -9 -2 -13 -14 -10 -9 1 -19 9 -22 16 -3 9 2 13 14 10 9 -1 19 -9 22 -16z
m139 -128 c-9 -9 -28 6 -21 18 4 6 10 6 17 -1 6 -6 8 -13 4 -17z m-8052 -3 c3
-5 1 -12 -5 -16 -5 -3 -10 1 -10 9 0 18 6 21 15 7z m7595 -101 c0 -5 -7 -10
-15 -10 -8 0 -15 5 -15 10 0 6 7 10 15 10 8 0 15 -4 15 -10z m-6932 -32 c-7
-19 -38 -22 -38 -4 0 10 9 16 21 16 12 0 19 -5 17 -12z m7142 -88 c0 -5 -4
-10 -10 -10 -5 0 -10 5 -10 10 0 6 5 10 10 10 6 0 10 -4 10 -10z m-7271 -71
c3 -24 3 -24 -18 -5 -11 10 -18 23 -15 28 10 16 29 2 33 -23z m7081 -4 c0 -8
-7 -15 -15 -15 -8 0 -15 7 -15 15 0 8 7 15 15 15 8 0 15 -7 15 -15z m-7150
-71 c0 -14 -3 -14 -15 -4 -8 7 -15 14 -15 16 0 2 7 4 15 4 8 0 15 -7 15 -16z
m7060 2 c0 -3 -4 -8 -10 -11 -5 -3 -10 -1 -10 4 0 6 5 11 10 11 6 0 10 -2 10
-4z m-7135 -67 c-4 -5 -14 -5 -26 1 -11 6 -17 15 -14 21 4 5 14 5 26 -1 11 -6
17 -15 14 -21z m512 15 c-3 -3 -12 -4 -19 -1 -8 3 -5 6 6 6 11 1 17 -2 13 -5z
m6667 -185 c-3 -5 -10 -7 -15 -3 -5 3 -7 10 -3 15 3 5 10 7 15 3 5 -3 7 -10 3
-15z m237 -22 c-13 -13 -26 -3 -16 12 3 6 11 8 17 5 6 -4 6 -10 -1 -17z m-296
-67 c-5 -8 -11 -8 -17 -2 -6 6 -7 16 -3 22 5 8 11 8 17 2 6 -6 7 -16 3 -22z
m155 -80 c0 -5 -7 -10 -16 -10 -8 0 -12 5 -9 10 3 6 10 10 16 10 5 0 9 -4 9
-10z m-7036 -156 c8 -22 8 -24 -8 -24 -18 0 -29 16 -21 30 9 15 22 12 29 -6z
m6466 -15 c0 -5 -4 -9 -10 -9 -5 0 -10 7 -10 16 0 8 5 12 10 9 6 -3 10 -10 10
-16z m-6182 -67 c2 -7 -5 -12 -17 -12 -14 0 -19 5 -14 15 6 17 25 15 31 -3z
m532 -42 c0 -5 -4 -10 -10 -10 -5 0 -10 5 -10 10 0 6 5 10 10 10 6 0 10 -4 10
-10z m5550 -30 c0 -5 -4 -10 -9 -10 -6 0 -13 5 -16 10 -3 6 1 10 9 10 9 0 16
-4 16 -10z m-10 -40 c0 -5 -5 -10 -11 -10 -5 0 -7 5 -4 10 3 6 8 10 11 10 2 0
4 -4 4 -10z m298 -37 c5 -18 -10 -16 -34 2 -18 15 -18 15 5 13 14 -2 26 -9 29
-15z m-58 -8 c0 -8 -4 -15 -9 -15 -13 0 -22 16 -14 24 11 11 23 6 23 -9z
m-6245 -25 c3 -5 1 -10 -4 -10 -6 0 -11 5 -11 10 0 6 2 10 4 10 3 0 8 -4 11
-10z m860 -79 c3 -5 1 -12 -5 -16 -5 -3 -10 1 -10 9 0 18 6 21 15 7z m5215
-42 c0 -12 7 -27 16 -34 12 -8 14 -16 7 -29 -8 -14 -12 -11 -26 19 -9 19 -22
35 -28 35 -8 0 -8 4 1 15 18 21 30 19 30 -6z m410 -9 c0 -5 -5 -10 -11 -10 -5
0 -7 5 -4 10 3 6 8 10 11 10 2 0 4 -4 4 -10z m-720 -80 c0 -5 -2 -10 -4 -10
-3 0 -8 5 -11 10 -3 6 -1 10 4 10 6 0 11 -4 11 -10z m150 -66 c0 -8 -4 -12
-10 -9 -5 3 -10 10 -10 16 0 5 5 9 10 9 6 0 10 -7 10 -16z m-150 -4 c0 -5 -4
-10 -10 -10 -5 0 -10 5 -10 10 0 6 5 10 10 10 6 0 10 -4 10 -10z m-230 -65 c0
-8 -4 -17 -10 -20 -6 -4 -10 5 -10 20 0 15 4 24 10 20 6 -3 10 -12 10 -20z
m-5380 -20 c0 -8 -6 -15 -14 -15 -8 0 -16 7 -20 15 -4 10 1 15 14 15 11 0 20
-7 20 -15z m395 4 c10 -15 -1 -23 -20 -15 -9 3 -13 10 -10 16 8 13 22 13 30
-1z m4995 -59 c0 -5 -7 -10 -15 -10 -8 0 -15 5 -15 10 0 6 7 10 15 10 8 0 15
-4 15 -10z m99 -23 c12 -15 5 -27 -16 -27 -7 0 -13 9 -13 20 0 23 13 26 29 7z
m-532 -69 c-3 -7 -5 -2 -5 12 0 14 2 19 5 13 2 -7 2 -19 0 -25z m544 -71 c-13
-13 -26 -3 -16 12 3 6 11 8 17 5 6 -4 6 -10 -1 -17z m-4916 3 c4 -6 -5 -10
-20 -10 -15 0 -24 4 -20 10 3 6 12 10 20 10 8 0 17 -4 20 -10z m4595 -30 c0
-5 -5 -10 -11 -10 -5 0 -7 5 -4 10 3 6 8 10 11 10 2 0 4 -4 4 -10z m220 -25
c-7 -8 -16 -12 -21 -9 -13 8 -1 24 18 24 13 0 13 -3 3 -15z m-122 -7 c-6 -18
-28 -21 -28 -4 0 9 7 16 16 16 9 0 14 -5 12 -12z m-272 -29 c-11 -17 -13 -26
-4 -36 7 -9 7 -13 -1 -13 -6 0 -14 11 -17 26 -5 18 -1 29 12 39 25 18 30 11
10 -16z m349 -50 c-8 -12 -32 -12 -40 1 -11 18 5 31 26 20 11 -6 17 -15 14
-21z m-255 12 c0 -6 -4 -12 -9 -15 -13 -8 -42 4 -35 15 7 12 44 12 44 0z m650
-16 c-12 -15 -30 -12 -30 6 0 5 10 9 21 9 18 0 19 -2 9 -15z m-5215 -15 c3 -5
1 -10 -4 -10 -6 0 -11 5 -11 10 0 6 2 10 4 10 3 0 8 -4 11 -10z m4166 -53 c-1
-12 -15 -9 -19 4 -3 6 1 10 8 8 6 -3 11 -8 11 -12z m-3867 -58 c-3 -5 -10 -7
-15 -3 -5 3 -7 10 -3 15 3 5 10 7 15 3 5 -3 7 -10 3 -15z m3946 1 c0 -5 -4
-10 -10 -10 -5 0 -10 5 -10 10 0 6 5 10 10 10 6 0 10 -4 10 -10z m-3292 -32
c-7 -19 -38 -22 -38 -4 0 10 9 16 21 16 12 0 19 -5 17 -12z m-815 -13 c0 -6
-7 -11 -16 -13 -12 -3 -15 1 -11 13 7 17 25 17 27 0z m4367 5 c0 -5 -7 -10
-15 -10 -8 0 -15 5 -15 10 0 6 7 10 15 10 8 0 15 -4 15 -10z m-4120 -34 c0 -3
-4 -8 -10 -11 -5 -3 -10 -1 -10 4 0 6 5 11 10 11 6 0 10 -2 10 -4z m1050 -35
c0 -13 -28 -22 -35 -10 -4 5 -11 7 -16 4 -5 -4 -9 -1 -9 4 0 6 14 11 30 11 17
0 30 -4 30 -9z m-1385 -41 c3 -5 1 -10 -4 -10 -6 0 -11 5 -11 10 0 6 2 10 4
10 3 0 8 -4 11 -10z m2585 -10 c0 -5 -5 -10 -11 -10 -5 0 -7 5 -4 10 3 6 8 10
11 10 2 0 4 -4 4 -10z m565 0 c3 -5 -3 -10 -14 -10 -12 0 -21 5 -21 10 0 6 6
10 14 10 8 0 18 -4 21 -10z m-205 -10 c0 -5 -2 -10 -4 -10 -3 0 -8 5 -11 10
-3 6 -1 10 4 10 6 0 11 -4 11 -10z m1290 -10 c0 -5 -5 -10 -11 -10 -5 0 -7 5
-4 10 3 6 8 10 11 10 2 0 4 -4 4 -10z m-635 -20 c3 -5 1 -10 -4 -10 -6 0 -11
5 -11 10 0 6 2 10 4 10 3 0 8 -4 11 -10z m-2161 -91 c-8 -13 -42 -11 -50 3 -4
6 1 17 12 25 16 12 20 11 31 -3 7 -9 10 -21 7 -25z m-814 -3 c0 -8 -4 -17 -9
-21 -12 -7 -24 12 -16 25 9 15 25 12 25 -4z m3448 -23 c-5 -23 -23 -20 -26 4
-3 18 0 21 13 17 9 -4 15 -13 13 -21z m-2538 -32 c0 -6 -4 -13 -10 -16 -5 -3
-10 1 -10 9 0 9 5 16 10 16 6 0 10 -4 10 -9z m1110 -31 c0 -5 -4 -10 -10 -10
-5 0 -10 5 -10 10 0 6 5 10 10 10 6 0 10 -4 10 -10z m-453 -172 c-3 -8 -6 -5
-6 6 -1 11 2 17 5 13 3 -3 4 -12 1 -19z m503 7 c0 -8 -7 -15 -15 -15 -8 0 -15
7 -15 15 0 8 7 15 15 15 8 0 15 -7 15 -15z m666 -43 c-22 -5 -30 3 -21 18 5 8
11 7 22 -2 15 -12 14 -13 -1 -16z m-2426 8 c0 -5 -4 -10 -9 -10 -6 0 -13 5
-16 10 -3 6 1 10 9 10 9 0 16 -4 16 -10z m1857 -6 c-3 -3 -12 -4 -19 -1 -8 3
-5 6 6 6 11 1 17 -2 13 -5z m98 -24 c-3 -5 -10 -10 -16 -10 -5 0 -9 5 -9 10 0
6 7 10 16 10 8 0 12 -4 9 -10z m-125 -109 c0 -6 -4 -13 -10 -16 -5 -3 -10 1
-10 9 0 9 5 16 10 16 6 0 10 -4 10 -9z"/>
<path d="M4340 8096 c-83 -15 -101 -26 -150 -87 -49 -62 -157 -279 -205 -414
-69 -190 -88 -296 -89 -505 -1 -161 1 -190 18 -225 37 -80 87 -115 161 -115
160 0 365 259 489 620 62 180 94 302 109 417 23 176 0 250 -95 297 -59 29
-126 33 -238 12z"/>
<path d="M5139 7422 c-57 -81 -100 -183 -134 -322 -38 -152 -36 -308 4 -329
45 -25 183 90 254 210 51 87 127 296 127 348 0 37 -38 61 -96 61 -49 0 -55 3
-80 35 -14 19 -31 35 -38 35 -6 0 -23 -17 -37 -38z"/>
<path d="M6828 5532 c-120 -130 -256 -378 -266 -484 -5 -64 6 -88 43 -88 34 0
178 76 214 112 57 58 143 266 161 388 13 89 -15 130 -90 130 -4 0 -32 -26 -62
-58z"/>
<path d="M5180 5569 c-39 -41 -109 -201 -139 -321 -55 -217 -50 -368 13 -368
27 0 102 56 157 117 72 79 136 211 178 363 37 131 24 160 -70 160 -50 0 -56 3
-85 37 l-30 36 -24 -24z"/>
</g>
</svg>
